<svg width="14" height="14" viewBox="0 0 14 14" fill="none" xmlns="http://www.w3.org/2000/svg">
<path d="M12.2493 4.66667V2.91667C12.2493 2.60725 12.1264 2.3105 11.9076 2.09171C11.6888 1.87292 11.3921 1.75 11.0827 1.75H2.91602C2.6066 1.75 2.30985 1.87292 2.09106 2.09171C1.87227 2.3105 1.74935 2.60725 1.74935 2.91667V4.66667M12.2493 9.33333V11.0833C12.2493 11.3928 12.1264 11.6895 11.9076 11.9083C11.6888 12.1271 11.3921 12.25 11.0827 12.25H2.91602C2.6066 12.25 2.30985 12.1271 2.09106 11.9083C1.87227 11.6895 1.74935 11.3928 1.74935 11.0833V9.33333M2.33268 7H1.16602M5.83268 7H4.66602M9.33268 7H8.16602M12.8327 7H11.666" stroke="#0A0A0A" stroke-linecap="round" stroke-linejoin="round"/>
</svg>
