<svg width="14" height="14" viewBox="0 0 14 14" fill="none" xmlns="http://www.w3.org/2000/svg">
<path d="M2.91667 1.75C2.60725 1.75 2.3105 1.87292 2.09171 2.09171C1.87292 2.3105 1.75 2.60725 1.75 2.91667M11.0833 1.75C11.3928 1.75 11.6895 1.87292 11.9083 2.09171C12.1271 2.3105 12.25 2.60725 12.25 2.91667M2.91667 12.25C2.60725 12.25 2.3105 12.1271 2.09171 11.9083C1.87292 11.6895 1.75 11.3928 1.75 11.0833M5.25 1.75H5.83333M5.25 12.25H6.41667M8.16667 1.75H8.75M1.75 5.25V5.83333M12.25 5.25V6.41667M1.75 8.16667V8.75M7 7L9.33333 12.8333L10.325 10.325L12.8333 9.33333L7 7Z" stroke="#0A0A0A" stroke-linecap="round" stroke-linejoin="round"/>
</svg>
