<svg width="14" height="14" viewBox="0 0 14 14" fill="none" xmlns="http://www.w3.org/2000/svg">
<path d="M8.16732 1.16699V3.50033C8.16732 3.80974 8.29023 4.10649 8.50903 4.32528C8.72782 4.54408 9.02456 4.66699 9.33398 4.66699H11.6673M5.25065 7.58366V7.00033H8.75065V7.58366M7.00065 7.00033V10.5003M6.41732 10.5003H7.58398M8.75065 1.16699H3.50065C3.19123 1.16699 2.89449 1.28991 2.67569 1.5087C2.4569 1.72749 2.33398 2.02424 2.33398 2.33366V11.667C2.33398 11.9764 2.4569 12.2732 2.67569 12.492C2.89449 12.7107 3.19123 12.8337 3.50065 12.8337H10.5007C10.8101 12.8337 11.1068 12.7107 11.3256 12.492C11.5444 12.2732 11.6673 11.9764 11.6673 11.667V4.08366L8.75065 1.16699Z" stroke="#0A0A0A" stroke-linecap="round" stroke-linejoin="round"/>
</svg>
